<svg width="100%" height="100%" viewBox="0 0 145 30" fill="none" xmlns="http://www.w3.org/2000/svg">
<path d="M12.0673 22.6136C11.2284 26.5273 8.80847 28.4682 4.87209 28.4682C1.61327 28.4682 0 27.1318 0 24.4909C0 23.9182 0.0645312 23.2818 0.225859 22.6136L3.74279 6.35455C4.5817 2.44091 6.96934 0.5 10.938 0.5C14.1968 0.5 15.8423 1.83636 15.8423 4.47727C15.8423 5.05 15.7778 5.65455 15.6165 6.35455L14.7453 10.2045H10.1636L11.0025 6.35455C11.0348 6.16364 11.0671 5.97273 11.0671 5.81364C11.0671 5.17727 10.7121 4.82727 9.97003 4.82727H9.93776C9.03433 4.82727 8.48582 5.33636 8.25996 6.35455L4.77529 22.6136C4.74302 22.8045 4.71076 22.9955 4.71076 23.1545C4.71076 23.8227 5.06568 24.1409 5.80778 24.1409C6.71122 24.1409 7.292 23.6318 7.48559 22.6136L8.32449 18.7636H12.9062L12.0673 22.6136Z" fill="black"></path>
<path d="M25.1349 22.6136C24.296 26.5273 21.8761 28.4682 17.9397 28.4682C14.6809 28.4682 13.0676 27.1318 13.0676 24.4909C13.0676 23.9182 13.1322 23.2818 13.2935 22.6136L16.8104 6.35455C17.6493 2.44091 20.037 0.5 24.0056 0.5C27.2644 0.5 28.91 1.83636 28.91 4.47727C28.91 5.05 28.8454 5.65455 28.6841 6.35455L25.1349 22.6136ZM24.0702 6.35455C24.1024 6.16364 24.1347 5.97273 24.1347 5.81364C24.1347 5.17727 23.7798 4.82727 23.0377 4.82727H23.0054C22.102 4.82727 21.5534 5.33636 21.3276 6.35455L17.8429 22.6136C17.8106 22.8045 17.7784 22.9955 17.7784 23.1545C17.7784 23.8227 18.1333 24.1409 18.8754 24.1409C19.7788 24.1409 20.3596 23.6318 20.5532 22.6136L24.0702 6.35455Z" fill="black"></path>
<path d="M31.4263 0.913605H37.7503C40.751 0.913605 42.2352 2.21815 42.2352 4.79542C42.2352 5.39997 42.1707 6.03633 42.0093 6.76815L38.686 22.1681C37.8471 26.05 35.4917 28.0227 31.6521 28.0227H25.554L31.4263 0.913605ZM35.0723 5.24088L31.1036 23.7272H32.4588C33.3622 23.7272 33.9107 23.2181 34.1366 22.2L37.4599 6.79997C37.4922 6.60906 37.5244 6.41815 37.5244 6.25906C37.5244 5.59088 37.1695 5.24088 36.4274 5.24088H35.0723Z" fill="black"></path>
<path d="M44.8811 0.913605H55.6577L54.722 5.24088H48.5271L47.0106 12.3363H52.3344L51.3987 16.6636H46.0749L44.5584 23.7272H50.7534L49.8177 28.0545H39.041L44.8811 0.913605Z" fill="black"></path>
<path d="M56.852 0.913605H62.8534C65.8541 0.913605 67.3383 2.21815 67.3383 4.79542C67.3383 5.39997 67.2738 6.03633 67.1125 6.76815L66.2736 10.7772C65.7573 13.2272 64.4022 14.8181 62.2404 15.55L63.9504 28.0545H58.9493L58.3363 16.3772H58.0781L55.5614 28.0545H50.9797L56.852 0.913605ZM60.498 5.24088L58.9816 12.3045H59.5301C60.0141 12.3045 60.3367 12.2727 60.498 12.2091C61.1111 11.9863 61.5305 11.5091 61.6919 10.7454L62.5308 6.73633C62.563 6.54542 62.5953 6.35451 62.5953 6.19542C62.5953 5.52724 62.2404 5.17724 61.4983 5.17724H60.498V5.24088Z" fill="black"></path>
<path d="M71.592 0.913574H76.1737L73.7215 12.3045H76.4318L78.884 0.913574H83.4657L77.6256 28.0545H73.044L75.4961 16.6636H72.7858L70.3336 28.0545H65.752L71.592 0.913574Z" fill="black"></path>
<path d="M92.2421 22.6136C91.4032 26.5273 88.9833 28.4682 85.0469 28.4682C81.7881 28.4682 80.1748 27.1318 80.1748 24.4909C80.1748 23.9182 80.2393 23.2818 80.4007 22.6136L83.9176 6.35455C84.7565 2.44091 87.1442 0.5 91.1128 0.5C94.3716 0.5 96.0172 1.83636 96.0172 4.47727C96.0172 5.05 95.9526 5.65455 95.7913 6.35455L92.2421 22.6136ZM91.1773 6.35455C91.2096 6.16364 91.2419 5.97273 91.2419 5.81364C91.2419 5.17727 90.887 4.82727 90.1449 4.82727H90.1126C89.2092 4.82727 88.6606 5.33636 88.4348 6.35455L84.9178 22.6136C84.8856 22.8045 84.8533 22.9955 84.8533 23.1545C84.8533 23.8227 85.2082 24.1409 85.9503 24.1409C86.8538 24.1409 87.4345 23.6318 87.6281 22.6136L91.1773 6.35455Z" fill="black"></path>
<path d="M105.567 22.6136C104.728 26.5272 102.308 28.4681 98.3721 28.4681C95.1133 28.4681 93.5 27.1318 93.5 24.4908C93.5 23.9181 93.5645 23.2818 93.7259 22.6136L98.4044 0.913574H102.986L98.3076 22.6136C98.2753 22.8045 98.243 22.9954 98.243 23.1545C98.243 23.8227 98.598 24.1408 99.3401 24.1408C100.243 24.1408 100.824 23.6318 101.018 22.6136L105.664 0.913574H110.246L105.567 22.6136Z" fill="black"></path>
<path d="M110.569 6.35455C111.408 2.44091 113.795 0.5 117.764 0.5C121.023 0.5 122.668 1.83636 122.668 4.47727C122.668 5.05 122.604 5.65455 122.443 6.35455L121.604 10.2045H117.022L117.861 6.35455C117.893 6.16364 117.925 5.97273 117.925 5.81364C117.925 5.17727 117.571 4.82727 116.828 4.82727H116.796C115.893 4.82727 115.344 5.33636 115.118 6.35455L114.602 8.77273C114.57 8.9 114.57 9.02727 114.57 9.15455C114.57 10.2045 115.473 11.4455 117.248 12.9409C118.958 14.3409 119.829 15.9955 119.829 17.8409C119.829 18.3182 119.765 18.7955 119.668 19.2727L118.926 22.6455C118.087 26.5591 115.699 28.5 111.731 28.5C108.472 28.5 106.826 27.1636 106.826 24.4909C106.826 23.9182 106.891 23.3136 107.052 22.6136L107.891 18.7636H112.473L111.634 22.6136C111.601 22.8045 111.569 22.9955 111.569 23.1545C111.569 23.8227 111.924 24.1409 112.666 24.1409C113.57 24.1409 114.118 23.6318 114.344 22.6136L114.989 19.5909C115.022 19.4636 115.022 19.3045 115.022 19.1773C115.022 18.0636 114.15 16.7591 112.376 15.2955C110.666 13.8955 109.827 12.2409 109.827 10.3636C109.827 9.88636 109.891 9.37727 109.988 8.86818L110.569 6.35455Z" fill="black"></path>
<path d="M125.185 0.913574H135.961L135.026 5.24085H128.831L127.314 12.3045H132.67L131.735 16.6318H126.411L124.894 23.6954H131.057L130.121 28.0227H119.345L125.185 0.913574Z" fill="black"></path>
</svg>